<?xml version="1.0" encoding="UTF-8" standalone="no"?>
<!-- Created with Inkscape (http://www.inkscape.org/) -->

<svg
   xmlns:dc="http://purl.org/dc/elements/1.1/"
   xmlns:cc="http://creativecommons.org/ns#"
   xmlns:rdf="http://www.w3.org/1999/02/22-rdf-syntax-ns#"
   xmlns:svg="http://www.w3.org/2000/svg"
   xmlns="http://www.w3.org/2000/svg"
   xmlns:sodipodi="http://sodipodi.sourceforge.net/DTD/sodipodi-0.dtd"
   xmlns:inkscape="http://www.inkscape.org/namespaces/inkscape"
   width="210mm"
   height="297mm"
   viewBox="0 0 210 297"
   version="1.1"
   id="svg8"
   inkscape:version="0.92.1 r15371"
   sodipodi:docname="escrow.svg">
  <defs
     id="defs2" />
  <sodipodi:namedview
     id="base"
     pagecolor="#ffffff"
     bordercolor="#666666"
     borderopacity="1.0"
     inkscape:pageopacity="0.0"
     inkscape:pageshadow="2"
     inkscape:zoom="0.35"
     inkscape:cx="227.97557"
     inkscape:cy="703.03934"
     inkscape:document-units="mm"
     inkscape:current-layer="layer1"
     showgrid="true"
     inkscape:window-width="1366"
     inkscape:window-height="705"
     inkscape:window-x="-8"
     inkscape:window-y="-8"
     inkscape:window-maximized="1">
    <inkscape:grid
       type="xygrid"
       id="grid5551" />
  </sodipodi:namedview>
  <metadata
     id="metadata5">
    <rdf:RDF>
      <cc:Work
         rdf:about="">
        <dc:format>image/svg+xml</dc:format>
        <dc:type
           rdf:resource="http://purl.org/dc/dcmitype/StillImage" />
        <dc:title></dc:title>
      </cc:Work>
    </rdf:RDF>
  </metadata>
  <g
     inkscape:label="Layer 1"
     inkscape:groupmode="layer"
     id="layer1">
    <path
       style="opacity:1;fill:#d0d234;fill-opacity:1;fill-rule:evenodd;stroke-width:0.05097706"
       d="m 129.0314,40.122717 c 0.0229,-0.437414 0.15082,-1.406945 0.24737,-1.848658 0.28654,-1.310104 0.86864,-2.612598 1.69284,-3.786754 0.38881,-0.554349 3.20905,-3.728837 3.70382,-4.17108 1.43047,-1.274582 3.09678,-2.113544 4.95935,-2.496974 0.6588,-0.13565 2.31097,-0.217729 2.95096,-0.146225 1.97541,0.219568 3.68989,0.884967 5.24109,2.033395 0.69404,0.513516 6.38872,5.641021 6.76523,6.092069 1.30268,1.556574 2.0666,3.29455 2.35026,5.348017 0.21223,1.535422 -0.002,3.457446 -0.55151,4.918352 l -0.11657,0.310891 -6.42398,-5.70234 c -6.40075,-5.681532 -6.42558,-5.702822 -6.85409,-5.883467 -1.09652,-0.462015 -2.33733,-0.351172 -3.30793,0.295626 -0.42484,0.283256 -3.19643,3.417049 -3.4235,3.869062 -0.29706,0.59493 -0.36096,0.962081 -0.3105,1.780097 0.037,0.606932 0.0644,0.760217 0.17934,1.03623 0.33446,0.800243 0.10737,0.582444 6.91611,6.639774 3.48004,3.094363 6.32546,5.644355 6.32794,5.661208 0.002,0.04598 -0.91984,0.465371 -1.44224,0.655949 -2.50166,0.912764 -5.34298,0.801692 -7.7698,-0.303604 -0.64099,-0.291993 -1.0366,-0.520091 -1.64919,-0.951688 -0.63417,-0.446634 -6.58081,-5.761475 -6.99865,-6.257379 -1.10173,-1.300885 -1.81518,-2.709186 -2.21219,-4.367314 -0.13773,-0.574765 -0.30035,-2.191761 -0.2746,-2.727808 z m 14.02792,1.381424 1.13735,-1.279916 12.83906,11.409462 12.83902,11.409369 -1.1373,1.279917 -1.13734,1.279893 L 154.76108,54.193473 141.922,42.784034 Z m 11.7038,21.536272 c 0.0229,-0.638775 0.11404,-1.343051 0.25015,-1.92968 0.13772,-0.59339 0.44942,-1.58398 0.4994,-1.586877 0.0138,9.42e-4 2.88307,2.527207 6.36578,5.618536 5.43206,4.819257 6.38483,5.646746 6.70064,5.805963 0.56993,0.287256 0.95421,0.373543 1.61223,0.36276 0.71007,-0.01149 1.17979,-0.13611 1.74446,-0.462222 0.37945,-0.219339 0.49119,-0.332297 1.93879,-1.960995 1.48803,-1.671325 1.5422,-1.742644 1.7213,-2.173206 0.23321,-0.560558 0.30796,-0.99066 0.2743,-1.578278 -0.0328,-0.568305 -0.19428,-1.10125 -0.4829,-1.590808 -0.19565,-0.332297 -0.62615,-0.725935 -6.62285,-6.063974 l -6.41356,-5.708662 0.29379,-0.152894 c 0.51544,-0.267921 1.4215,-0.610035 2.06938,-0.780655 3.05946,-0.805992 6.27439,-0.19244 8.76761,1.672612 0.6927,0.518183 6.40699,5.639826 6.76498,6.063238 1.59064,1.881467 2.46896,4.18814 2.50101,6.567696 0.0292,2.270346 -0.59788,4.303741 -1.9131,6.189553 -0.36332,0.521057 -3.1847,3.702789 -3.68797,4.158848 -1.8681,1.693765 -4.21579,2.636004 -6.70959,2.693299 -1.87202,0.04277 -3.49279,-0.335217 -5.12604,-1.196503 -0.8843,-0.466521 -1.28445,-0.788587 -4.41355,-3.557413 -3.57171,-3.161866 -3.9072,-3.499658 -4.61695,-4.663582 -1.05403,-1.729654 -1.58637,-3.741253 -1.51593,-5.727836 z"
       id="path4520-1-18"
       inkscape:connector-curvature="0"
       inkscape:export-xdpi="238"
       inkscape:export-ydpi="238" />
    <path
       style="fill:#620e77;fill-opacity:1;stroke-width:0.60831809"
       d="M 38.466411,117.99017 44.246985,110.92998 0.35709505,74.108289 59.265021,1.3643052 103.9796,37.974617 135.71366,0.25468741 210.11809,61.979698 C 177.99897,101.37802 143.04573,144.01752 113.77517,179.64963 Z m 86.330959,34.62143 -9.40483,-7.71808 -11.57714,14.10724 9.40485,7.71811 z m -16.45923,-13.50578 -9.404835,-7.71811 -11.577161,14.10727 9.404877,7.7181 z m 27.27972,-0.53773 -25.88738,-21.19545 7.70744,-9.41359 25.88737,21.19545 7.70743,-9.41359 -25.88737,-21.195465 7.70743,-9.413606 25.88737,21.195461 7.70744,-9.4136 L 122.57085,64.226201 95.559412,97.144783 72.046086,77.850922 98.199026,45.034815 60.54464,14.205061 13.201229,72.845846 50.027568,103.86978 61.588726,89.749368 129.83728,145.62828 Z m -43.738982,-12.96794 -9.404858,-7.71811 -11.577161,14.10731 9.404858,7.71811 z m -18.810606,-15.43514 -9.404828,-7.71811 -11.577171,14.10726 9.404858,7.71811 z M 197.27731,63.259316 136.08898,13.161016 84.063772,76.70277 l 9.413612,7.707432 26.976006,-32.947573 51.77478,42.390868 z"
       id="path4507-4-6"
       inkscape:connector-curvature="0"
       sodipodi:nodetypes="ccccccccccccccccccccccccccccccccccccccccccccccccccccccc"
       inkscape:export-xdpi="238"
       inkscape:export-ydpi="238" />
    <path
       style="opacity:1;fill:#d0d234;fill-opacity:1;fill-rule:evenodd;stroke-width:0.05274424"
       d="m 40.377285,83.482631 c -0.452593,-0.02299 -1.45571,-0.155882 -1.912744,-0.255918 -1.355503,-0.296453 -2.703203,-0.898739 -3.918027,-1.751496 -0.573551,-0.402283 -3.858122,-3.320278 -4.315677,-3.83223 -1.318773,-1.480059 -2.186795,-3.204148 -2.583537,-5.131253 -0.140478,-0.681631 -0.225087,-2.391099 -0.151284,-3.053278 0.227386,-2.043879 0.915661,-3.817792 2.10391,-5.422785 0.531311,-0.718095 5.836562,-6.610207 6.303249,-6.999776 1.610534,-1.347787 3.408769,-2.138213 5.533437,-2.431724 1.588625,-0.219339 3.577282,0.0023 5.088866,0.570651 l 0.321626,0.120475 -5.900028,6.646671 c -5.878455,6.622646 -5.900522,6.648282 -6.087422,7.091673 -0.478016,1.134542 -0.363337,2.418389 0.305879,3.422637 0.293071,0.439553 3.535503,3.307196 4.003199,3.542146 0.615547,0.307374 0.995441,0.373497 1.841825,0.321284 0.627921,-0.03817 0.786543,-0.06645 1.072126,-0.185771 0.827986,-0.34607 0.60263,-0.11128 6.86999,-7.155866 3.201591,-3.600683 5.840008,-6.54475 5.857436,-6.547302 0.04777,-0.0023 0.481485,0.951689 0.678692,1.49222 0.944423,2.588388 0.82946,5.528179 -0.314139,8.039155 -0.302111,0.663214 -0.53812,1.072555 -0.98468,1.706363 -0.462127,0.656132 -5.961203,6.808945 -6.474279,7.241256 -1.345999,1.139921 -2.803113,1.878087 -4.518758,2.2889 -0.594677,0.142548 -2.267702,0.310754 -2.82235,0.28406 z m 1.42931,-14.514193 -1.324287,-1.176754 11.80498,-13.284169 11.804902,-13.284147 1.324307,1.176731 1.324248,1.176776 L 54.935854,56.861044 43.130863,70.145168 Z M 64.08947,56.858929 c -0.660937,-0.02299 -1.389628,-0.118176 -1.99658,-0.258954 -0.613965,-0.142547 -1.638911,-0.465004 -1.641898,-0.516711 9.7e-4,-0.0138 2.614808,-2.983038 5.813293,-6.586457 4.986366,-5.620399 5.842522,-6.606184 6.007237,-6.932985 0.297205,-0.589642 0.386481,-0.98728 0.375383,-1.668084 -0.01147,-0.734717 -0.140937,-1.220713 -0.47827,-1.804951 C 71.941478,38.698184 71.824844,38.582582 70.139653,37.084798 68.410388,35.545169 68.33661,35.489116 67.8911,35.303804 67.311071,35.0626 66.866094,34.985188 66.258153,35.020135 c -0.58803,0.0338 -1.139484,0.200945 -1.646013,0.499628 -0.343791,0.202326 -0.751083,0.64781 -6.274184,6.852447 l -5.906526,6.635865 -0.158187,-0.303971 c -0.277304,-0.533289 -0.631185,-1.470746 -0.807739,-2.141088 -0.833902,-3.165499 -0.199106,-6.491892 1.73062,-9.071589 0.536122,-0.716716 5.83532,-6.629061 6.273403,-6.999454 1.94667,-1.64578 4.333331,-2.554545 6.795362,-2.587745 2.349085,-0.02989 4.452933,0.618634 6.404133,1.979435 0.539129,0.375911 3.831144,3.295079 4.303005,3.815814 1.752509,1.932853 2.727446,4.361956 2.786693,6.942205 0.04441,1.936923 -0.346828,3.613857 -1.237979,5.303713 -0.482691,0.914948 -0.815929,1.329003 -3.680742,4.566557 -3.271471,3.695546 -3.62094,4.042673 -4.82524,4.777022 -1.78961,1.090558 -3.870946,1.641344 -5.926387,1.568461 z"
       id="path4520-1-18-9"
       inkscape:connector-curvature="0"
       inkscape:export-xdpi="238"
       inkscape:export-ydpi="238" />
  </g>
</svg>
