<?xml version="1.0" encoding="utf-8"?>
<!-- Generator: Adobe Illustrator 21.0.0, SVG Export Plug-In . SVG Version: 6.00 Build 0)  -->
<svg version="1.1" id="Слой_1" xmlns="http://www.w3.org/2000/svg" xmlns:xlink="http://www.w3.org/1999/xlink" x="0px" y="0px"
	 viewBox="0 0 35.7 35.6" style="enable-background:new 0 0 35.7 35.6;" xml:space="preserve">
<style type="text/css">
	.st0{filter:url(#a);}
	.st1{fill:#73899E;}
	.st2{fill:none;stroke:#DBE4ED;}
</style>
<filter  filterUnits="objectBoundingBox" height="143.3%" id="a" width="112.9%" x="-6.5%" y="-20.8%">
	<feOffset  dy="2" in="SourceAlpha" result="shadowOffsetOuter1"></feOffset>
	<feGaussianBlur  in="shadowOffsetOuter1" result="shadowBlurOuter1" stdDeviation="17"></feGaussianBlur>
	<feComposite  in="shadowBlurOuter1" in2="SourceAlpha" operator="out" result="shadowBlurOuter1"></feComposite>
	
		<feColorMatrix  in="shadowBlurOuter1" result="shadowMatrixOuter1" values="0 0 0 0 0.838985167 0 0 0 0 0.854037415 0 0 0 0 0.912096088 0 0 0 1 0">
		</feColorMatrix>
	<feMerge>
		<feMergeNode  in="shadowMatrixOuter1"></feMergeNode>
		<feMergeNode  in="SourceGraphic"></feMergeNode>
	</feMerge>
</filter>
<g transform="translate(30 29)" class="st0">
	<path class="st1" d="M-8.7-7.1l0.3,1.2c0,0.1,0,0.2-0.2,0.3l0,0c0,0-0.1,0-0.1,0c0,0-0.1,0-0.1,0c0,0-0.1,0-0.2,0
		c-0.1,0-0.3,0.1-0.4,0.1c-0.1,0-0.2,0-0.3,0c-0.2,0-0.4,0-0.6,0c-1.2,0-2.3-0.3-3.2-1C-14.4-7-15-7.9-15.3-9.1h-0.7
		c-0.1,0-0.1,0-0.2-0.1c0,0-0.1-0.1-0.1-0.2v-0.9c0-0.1,0-0.1,0.1-0.2c0,0,0.1-0.1,0.2-0.1h0.5c0-0.3,0-0.6,0-0.8h-0.5
		c-0.1,0-0.1,0-0.2-0.1c0,0-0.1-0.1-0.1-0.2v-0.9c0-0.1,0-0.1,0.1-0.2c0,0,0.1-0.1,0.2-0.1h0.8c0.3-1.1,1-2,1.9-2.6
		c0.9-0.7,2-1,3.1-1c0.5,0,1,0.1,1.5,0.2c0.1,0,0.1,0.1,0.2,0.1c0,0.1,0,0.1,0,0.2l-0.3,1.2c0,0.1-0.1,0.2-0.3,0.2c0,0,0,0,0,0l0,0
		c0,0-0.1,0-0.1,0l-0.1,0c-0.1,0-0.1,0-0.2,0c-0.1,0-0.1,0-0.2,0c-0.2,0-0.3,0-0.5,0c-0.7,0-1.2,0.2-1.8,0.5
		c-0.5,0.3-0.9,0.8-1.2,1.4h3.7c0.1,0,0.2,0,0.2,0.1c0,0.1,0.1,0.1,0.1,0.2l-0.2,0.9c0,0.1-0.1,0.2-0.2,0.2h-3.8c0,0.3,0,0.5,0,0.8
		h3.6c0.1,0,0.1,0,0.2,0.1c0,0.1,0.1,0.1,0,0.2L-10-9.3c0,0.1,0,0.1-0.1,0.1c0,0-0.1,0.1-0.2,0.1h-3c0.5,1.2,1.7,2,3,2
		c0.1,0,0.2,0,0.3,0c0.2,0,0.3,0,0.5-0.1c0.1,0,0.2,0,0.3-0.1l0.1,0l0,0C-8.9-7.3-8.8-7.3-8.7-7.1C-8.7-7.1-8.7-7.1-8.7-7.1
		L-8.7-7.1z"/>
	<circle class="st2" cx="-11.8" cy="-10.8" r="17"/>
</g>
</svg>
