<?xml version="1.0" encoding="utf-8"?>
<!-- Generator: Adobe Illustrator 21.0.0, SVG Export Plug-In . SVG Version: 6.00 Build 0)  -->
<svg version="1.1" id="Слой_1" xmlns="http://www.w3.org/2000/svg" xmlns:xlink="http://www.w3.org/1999/xlink" x="0px" y="0px"
	 viewBox="0 0 96.1 27" style="enable-background:new 0 0 96.1 27;" xml:space="preserve">
<style type="text/css">
	.st0{fill:#F79F1A;}
	.st1{fill:#EA001B;}
	.st2{fill:#FF5F01;}
	.st3{fill:#00579F;}
	.st4{fill:#FAA61A;}
</style>
<g transform="translate(-65 -126)">
	<path class="st0" d="M99,136.8c0,5.5-4.7,10-10.5,10s-10.5-4.5-10.5-10s4.7-10,10.5-10S99,131.3,99,136.8z"/>
	<path class="st1" d="M86,136.8c0,5.5-4.7,10-10.5,10s-10.5-4.5-10.5-10s4.7-10,10.5-10S86,131.3,86,136.8z"/>
	<path class="st2" d="M82,129c-2.4,1.8-4,4.7-4,7.9s1.6,6,4,7.9c2.4-1.8,4-4.7,4-7.9C86,133.6,84.4,130.8,82,129L82,129z"/>
	<g>
		<path class="st0" d="M98.9,142.2v-0.4h-0.1l-0.1,0.3l-0.1-0.3h-0.1v0.4h0.1v-0.3l0.1,0.3H98.9v-0.3V142.2L98.9,142.2L98.9,142.2z
			 M98.3,142.2v-0.3h0.1v-0.1h-0.3v0.1h0.1L98.3,142.2L98.3,142.2L98.3,142.2z"/>
	</g>
	<g>
		<path d="M66.7,152.7h-0.6v-2.8h0.6v0.3c0,0,0.5-0.4,0.8-0.4c0.6,0,1,0.5,1,0.5s0.3-0.5,1-0.5c0.5,0,1,0.3,1.1,0.9v1.9H70v-1.7
			c0,0,0-0.5-0.6-0.5c-0.7,0-0.7,0.5-0.7,0.5v1.7h-0.6v-1.7c0,0-0.1-0.5-0.6-0.5c-0.7,0-0.7,0.6-0.7,0.6L66.7,152.7L66.7,152.7z
			 M85.4,149.9c-0.3,0-0.8,0.4-0.8,0.4V150H84v2.8h0.6v-1.7c0,0,0-0.6,0.7-0.6c0.1,0,0.2,0,0.3,0.1l0,0l0.2-0.5
			C85.7,150,85.5,149.9,85.4,149.9L85.4,149.9z M94,149.9c-0.3,0-0.8,0.4-0.8,0.4V150h-0.6v2.8h0.6v-1.7c0,0,0-0.6,0.7-0.6
			c0.1,0,0.2,0,0.3,0.1l0,0l0.2-0.5C94.3,150,94.2,149.9,94,149.9L94,149.9z M72.6,149.9c-0.9,0-1.4,0.8-1.4,1.5s0.6,1.5,1.4,1.5
			c0.5,0,0.9-0.4,0.9-0.4v0.3h0.6V150h-0.6v0.3C73.5,150.3,73.1,149.9,72.6,149.9L72.6,149.9z M72.7,150.5c0.5,0,0.9,0.4,0.9,0.9
			s-0.4,0.9-0.9,0.9s-0.9-0.4-0.9-0.9l0,0C71.8,150.9,72.2,150.5,72.7,150.5L72.7,150.5z M90.2,149.9c-0.9,0-1.4,0.8-1.4,1.5
			s0.6,1.5,1.4,1.5c0.5,0,0.9-0.4,0.9-0.4v0.3h0.6V150h-0.6v0.3C91.2,150.3,90.8,149.9,90.2,149.9L90.2,149.9z M90.3,150.5
			c0.5,0,0.9,0.4,0.9,0.9s-0.4,0.9-0.9,0.9s-0.9-0.4-0.9-0.9l0,0C89.4,150.9,89.8,150.5,90.3,150.5L90.3,150.5z M96,149.9
			c-0.9,0-1.4,0.8-1.4,1.5s0.6,1.5,1.4,1.5c0.5,0,0.9-0.4,0.9-0.4v0.3h0.6V149h-0.6v1.4C97,150.3,96.6,149.9,96,149.9L96,149.9z
			 M96.1,150.5c0.5,0,0.9,0.4,0.9,0.9s-0.4,0.9-0.9,0.9s-0.9-0.4-0.9-0.9l0,0C95.2,150.9,95.6,150.5,96.1,150.5L96.1,150.5z
			 M76,152.8c-0.6,0-1.2-0.4-1.2-0.4l0.3-0.4c0,0,0.5,0.2,0.9,0.2c0.3,0,0.7-0.1,0.7-0.3c0-0.3-0.7-0.3-0.7-0.3s-1.1,0-1.1-0.9
			c0-0.5,0.5-0.9,1.2-0.9c0.4,0,1.1,0.3,1.1,0.3l-0.3,0.5c0,0-0.6-0.2-0.9-0.2s-0.6,0.1-0.6,0.3c0,0.6,1.8,0,1.8,1.1
			C77.3,152.7,76.6,152.8,76,152.8L76,152.8z M78.3,149.2v0.8h-0.5v0.6h0.5v1.4c0,0,0,0.9,1,0.9c0.3,0,0.9-0.2,0.9-0.2l-0.2-0.6
			c0,0-0.2,0.2-0.5,0.2c-0.5,0-0.5-0.3-0.5-0.3v-1.4h1V150h-1v-0.8L78.3,149.2L78.3,149.2z M81.9,149.9c-1,0-1.5,0.8-1.5,1.5
			s0.4,1.5,1.5,1.5c0.5,0,1.1-0.4,1.1-0.4l-0.3-0.5c0,0-0.4,0.3-0.8,0.3c-0.8,0-0.8-0.7-0.8-0.7h2.2
			C83.3,151.6,83.4,149.9,81.9,149.9L81.9,149.9z M81.9,150.5L81.9,150.5c0.8,0,0.8,0.7,0.8,0.7h-1.5
			C81.2,151.2,81.1,150.5,81.9,150.5z M88.2,152l0.3,0.5c0,0-0.4,0.3-0.9,0.3c-1,0-1.6-0.7-1.6-1.5c0-1.1,0.9-1.4,1.5-1.4
			s1,0.3,1,0.3l-0.3,0.5c0,0-0.2-0.3-0.8-0.3c-0.6,0-0.8,0.5-0.8,0.9c0,0.5,0.3,0.9,0.9,0.9C87.8,152.3,88.2,152,88.2,152L88.2,152z
			"/>
		<g>
			<path d="M98.8,152.4c-0.1,0-0.2,0-0.2,0.1c-0.1,0.1-0.1,0.3,0,0.4l0,0c0.1,0.1,0.1,0.1,0.2,0.1s0.2,0,0.2-0.1
				c0.1-0.1,0.1-0.1,0.1-0.2c0-0.1,0-0.1-0.1-0.2C99,152.4,98.9,152.4,98.8,152.4L98.8,152.4z M98.8,152.9c-0.1,0-0.1,0-0.2-0.1
				s-0.1-0.2,0-0.3l0,0c0,0,0.1-0.1,0.2-0.1s0.1,0,0.2,0.1s0.1,0.2,0,0.3l0,0C99,152.8,98.9,152.9,98.8,152.9L98.8,152.9z
				 M98.9,152.5L98.9,152.5l-0.1,0.3h0.1v-0.1l0,0l0.1,0.1h0.1l-0.1-0.1c0,0,0,0,0.1,0c0,0,0,0,0-0.1C99,152.6,99,152.6,98.9,152.5
				L98.9,152.5L98.9,152.5z M98.9,152.6L98.9,152.6L98.9,152.6L98.9,152.6C98.9,152.6,98.9,152.7,98.9,152.6L98.9,152.6L98.9,152.6
				L98.9,152.6z"/>
		</g>
	</g>
	<g>
		<path class="st3" d="M141.2,146.8h-3.1l1.9-11h3.1L141.2,146.8z M151.1,136.3c-0.8-0.3-1.6-0.5-2.4-0.5c-2.6,0-4.5,1.4-4.5,3.5
			c0,1.5,1.3,2.4,2.3,2.9s1.4,0.9,1.4,1.3c0,0.7-0.8,1-1.6,1c-1.1,0-1.6-0.2-2.5-0.6l-0.4-0.2l-0.4,2.4c0.6,0.3,1.8,0.6,3,0.6
			c2.8,0,4.6-1.4,4.6-3.6c0-1.2-0.7-2.1-2.2-2.9c-0.9-0.5-1.5-0.8-1.5-1.3s0.5-0.9,1.5-0.9c0.7,0,1.4,0.1,2,0.4l0.2,0.1L151.1,136.3
			z M155,142.9l1-3.1c0,0,0.2-0.6,0.3-1.1l0.2,0.9c0,0,0.5,2.6,0.6,3.2H155V142.9z M158.1,135.8h-1.9c-0.6,0-1.1,0.2-1.3,0.9
			l-3.7,10.1h2.6l0.5-1.6h3.2c0.1,0.4,0.3,1.6,0.3,1.6h2.3L158.1,135.8L158.1,135.8z M135.4,135.8l-2.5,7.5l-0.3-1.5
			c-0.5-1.8-1.9-3.7-3.5-4.6l2.3,9.6h2.7l4-11H135.4L135.4,135.8z"/>
		<path class="st4" d="M130.1,135.8h-4v0.2c3.1,0.9,5.2,3.1,6,5.8l-0.9-5.1C131.1,136.1,130.7,135.9,130.1,135.8L130.1,135.8z"/>
	</g>
</g>
</svg>
